<svg id="Capa_1" enable-background="new 0 0 512 512" height="512" viewBox="0 0 512 512" width="512" xmlns="http://www.w3.org/2000/svg"><g><g><path d="m282.263 187.756c-.462 3.555-.702 7.181-.702 10.862 0 46.072 37.348 83.42 83.42 83.42s83.42-37.348 83.42-83.42c0-3.681-.239-7.307-.702-10.862z" fill="#ff7d97"/><path d="m388.997 118.707v-57.812h-48.031v57.812c-31.011 9.307-54.428 36.172-58.703 69.049h165.436c-4.275-32.876-27.691-59.742-58.702-69.049z" fill="#ccf5fc"/><path d="m227.986 326.913-78.039.073v74.351h23.576l33.232 29.291c21.307 13.382 45.922 20.476 71.042 20.476h105.523c9.112-.957 17.686-4.806 24.48-10.988l84.819-76.228c13.471-12.616 12.263-34.434-2.518-45.466-11.402-8.51-27.217-7.622-37.607 2.112l-66.294 61.585c-3.184 2.573-7.146 3.976-11.231 3.976h-4.673c15.948 0 28.877-13.003 28.877-29.044 0-16.041-12.929-30.065-28.877-30.065l-51.899-.073" fill="#ffdcd5"/><path d="m10 303.742h88.38v115.637h-88.38z" fill="#99ebfa"/><path d="m98.38 314.227h51.567v94.669h-51.567z" fill="#faf7f5"/></g><g><g><g><path d="m511.938 339.993c-.656-11.77-6.435-22.553-15.855-29.584-15.289-11.413-36.497-10.224-50.393 2.8l-37.542 34.873c-4.073-17.57-19.754-31.096-37.836-31.096l-51.898-.073h-.014c-5.517 0-9.992 4.468-10 9.986-.008 5.523 4.463 10.006 9.986 10.014l51.912.073c10.232 0 18.877 9.189 18.877 20.065 0 10.501-8.468 19.044-18.877 19.044h-88.735c-5.522 0-10 4.478-10 10s4.478 10 10 10h93.408c6.349 0 12.568-2.201 17.516-6.198.179-.145.352-.295.52-.452l66.326-61.612c6.847-6.416 17.273-7.004 24.787-1.396 4.663 3.48 7.523 8.828 7.85 14.671.324 5.82-1.904 11.435-6.118 15.418l-84.78 76.194c-5.135 4.672-11.456 7.565-18.31 8.385h-104.966c-22.998 0-45.472-6.402-65.049-18.523l-32.612-28.746c-1.826-1.609-4.178-2.498-6.612-2.498h-13.576v-54.36l68.049-.064c5.522-.005 9.995-4.486 9.99-10.01-.005-5.52-4.481-9.99-10-9.99h-.01l-68.029.064v-2.75c0-5.522-4.478-10-10-10h-41.567v-.484c0-5.522-4.478-10-10-10h-88.38c-5.523 0-10 4.478-10 10v115.637c0 5.522 4.477 10 10 10h88.38c5.522 0 10-4.478 10-10v-.483h41.566c4.68 0 8.609-3.216 9.699-7.559h10.099l30.398 26.794c.404.356.837.68 1.294.967 22.925 14.396 49.329 22.007 76.359 22.007h105.523c.349 0 .697-.019 1.045-.055 11.306-1.188 21.736-5.868 30.12-13.495l84.818-76.228c.051-.046.101-.092.151-.139 8.592-8.047 13.143-19.418 12.486-31.197zm-423.558 69.386h-68.38v-95.637h68.38zm20-85.152h31.566v74.669h-31.566z"/><path d="m264.14 330.74c1.611 3.862 5.544 6.355 9.724 6.157 4.107-.194 7.746-2.994 9.015-6.898 1.256-3.867-.008-8.242-3.162-10.817-3.375-2.756-8.268-2.994-11.897-.583-3.937 2.616-5.465 7.785-3.68 12.141z"/><path d="m364.981 292.038c51.512 0 93.42-41.908 93.42-93.42 0-4.034-.262-8.097-.777-12.077-.003-.025-.005-.049-.009-.074-4.409-33.912-27.093-62.569-58.619-74.883v-40.688h12.372c5.522 0 10-4.478 10-10s-4.478-10-10-10h-92.776c-5.522 0-10 4.478-10 10s4.478 10 10 10h12.373v40.689c-31.491 12.3-54.158 40.907-58.604 74.767-.005.039-.011.077-.016.116-.521 4.007-.784 8.095-.784 12.15 0 51.512 41.909 93.42 93.42 93.42zm-21.14-163.753c4.229-1.27 7.125-5.162 7.125-9.578v-47.811h28.031v47.812c0 4.416 2.896 8.309 7.126 9.578 23.931 7.182 42.336 26.002 49.274 49.472h-140.832c6.939-23.47 25.344-42.29 49.276-49.473zm-52.275 69.472h146.83c.003.287.005.574.005.861 0 40.484-32.937 73.42-73.42 73.42s-73.42-32.936-73.42-73.42c0-.287.003-.574.005-.861z"/></g></g></g></g></svg>